<svg width="50" height="32" viewBox="0 0 50 32" fill="none" xmlns="http://www.w3.org/2000/svg">
<path d="M45.7227 28.4657L43.4413 25.9821L41.1599 28.4657H36.6922H26.9963V17.003H22.4336L28.137 4.10746H33.6504L35.6466 8.50149V4.10746H42.4907L43.6314 7.45075L44.7721 4.10746H49.9052V2.10149C49.9052 0.955225 48.9546 0 47.8139 0H2.09126C0.950575 0 0 0.955225 0 2.10149V29.8985C0 31.0448 0.950575 32 2.09126 32H47.7189C48.8596 32 49.8101 31.0448 49.8101 29.8985V28.4657H45.7227Z" fill="#0071CE"/>
<path d="M46.3877 27.2242H49.9049L45.2471 22.1615L49.9049 17.1943H46.3877L43.536 20.3466L40.5892 17.1943H36.9771L41.7299 22.1615L36.9771 27.2242H40.4942L43.441 23.9764L46.3877 27.2242Z" fill="#0071CE"/>
<path d="M31.2738 24.8361V23.3078H36.8821V21.0152H31.2738V19.4869H36.9772V17.1943H28.5171V27.2242H36.9772V24.8361H31.2738Z" fill="#0071CE"/>
<path d="M47.2433 15.6656H49.9049V5.63574H45.7223L43.536 11.9402L41.2546 5.63574H36.9771V15.6656H39.7337V8.69246L42.3003 15.6656H44.6767L47.2433 8.69246V15.6656Z" fill="#0071CE"/>
<path d="M32.6049 5.63574H29.0877L24.7151 15.6656H27.7569L28.6124 13.6596H33.1752L34.0307 15.6656H37.0726L32.6049 5.63574ZM29.468 11.4626L30.7988 8.21485L32.1296 11.4626H29.468Z" fill="#0071CE"/>
<path d="M47.4336 21.8746L49.9051 24.6448L50.0001 19.1045L47.4336 21.8746Z" fill="#0071CE"/>
</svg>
