<svg width="32" height="32" viewBox="0 0 32 32" fill="none" xmlns="http://www.w3.org/2000/svg">
<path fill-rule="evenodd" clip-rule="evenodd" d="M0.579346 16.2569C0.579346 8.88217 6.55771 2.90381 13.9322 2.90381C21.3069 2.90381 27.2853 8.88217 27.2853 16.2569C27.2853 23.6317 21.3069 29.6104 13.9322 29.6104C6.55771 29.6104 0.579346 23.6317 0.579346 16.2569Z" fill="#FFFFFE"/>
<path fill-rule="evenodd" clip-rule="evenodd" d="M22.0076 15.9939C22.0022 12.5744 19.8648 9.65803 16.8529 8.50307V23.4842C19.8648 22.3277 22.0022 19.4141 22.0076 15.9939ZM11.1073 23.4813V8.50465C8.09815 9.6632 5.964 12.5754 5.95595 15.994C5.964 19.4118 8.09815 22.3236 11.1073 23.4813ZM13.9817 3.33139C6.9886 3.33407 1.32301 9.00086 1.32181 15.9939C1.32301 22.9861 6.9886 28.652 13.9817 28.6532C20.9747 28.652 26.6415 22.9861 26.6433 15.9939C26.6415 9.00086 20.9747 3.33407 13.9817 3.33139ZM13.9506 29.8482C6.29829 29.8846 0 23.6851 0 16.1384C0 7.8907 6.29829 2.18601 13.9506 2.1875H17.5367C25.0986 2.18601 32 7.88802 32 16.1384C32 23.6824 25.0986 29.8482 17.5367 29.8482H13.9506Z" fill="#0069AA"/>
</svg>
